PathFileType	4	(X/Y/Z)	Run_500 02
DataRate	CameraRate	NumFrames	NumMarkers	Units	OrigDataRate	OrigDataStartFrame	OrigNumFrames
120	120	4	42	mm	120	124	128
Frame#	Time	LASI			RASI			LPSI			RPSI			RTH1			RTH2			RTH3			LTH1			LTH2			LTH3			RTB1			RTB2			LTB1			LTB2			LTB3			RCAL			RTOE			RMT5			LCAL			LTOE			LMT5			LACR			RACR			CLAV			C7			RUA1			RUA2			RUA3			RLEL			RMEL			LUA1			LUA2			LUA3			LLEL			LMEL			RFAsuperior			RFAradius			RFAulna			LFAsuperior			LFAradius			LFAulna			RTB3			
		X1	Y1	Z1	X2	Y2	Z2	X3	Y3	Z3	X4	Y4	Z4	X5	Y5	Z5	X6	Y6	Z6	X7	Y7	Z7	X8	Y8	Z8	X9	Y9	Z9	X10	Y10	Z10	X11	Y11	Z11	X12	Y12	Z12	X13	Y13	Z13	X14	Y14	Z14	X15	Y15	Z15	X16	Y16	Z16	X17	Y17	Z17	X18	Y18	Z18	X19	Y19	Z19	X20	Y20	Z20	X21	Y21	Z21	X22	Y22	Z22	X23	Y23	Z23	X24	Y24	Z24	X25	Y25	Z25	X26	Y26	Z26	X27	Y27	Z27	X28	Y28	Z28	X29	Y29	Z29	X30	Y30	Z30	X31	Y31	Z31	X32	Y32	Z32	X33	Y33	Z33	X34	Y34	Z34	X35	Y35	Z35	X36	Y36	Z36	X37	Y37	Z37	X38	Y38	Z38	X39	Y39	Z39	X40	Y40	Z40	X41	Y41	Z41	X42	Y42	Z42	

119	1.15	963.706127	1067.493272	-743.16269	973.447307	1052.225842	-492.726596	790.7532629999999	1102.455241	-662.380903	795.885053	1101.462788	-578.540021	856.506143	891.254755	-448.609956	850.908337	771.146128	-465.106378	738.586676	705.709402	-498.037724	966.179694	854.649389	-803.972221	1078.587941	770.298505	-787.672924	1070.082392	648.4981790000001	-751.274915	569.689292	505.389538	-588.175147	500.130184	534.487262	-524.349511	1211.338904	460.60858	-681.196766	1211.49024	366.099278	-729.811189	1262.463271	267.619457	-659.201477	273.131548	638.359607	-618.052328	185.630447	421.490755	-620.31873	169.377635	501.049726	-540.4797589999999	1209.796929	93.667226	-633.258788	1425.431417	187.799267	-622.468704	1384.246305	113.743076	-699.426889	926.172239	1523.261413	-808.631116	1001.480891	1541.75179	-486.527312	1012.433313	1477.042965	-620.311033	890.013162	1561.78782	-625.18161	1007.186227	1452.238445	-401.366158	1021.552347	1366.675761	-390.354431	959.637489	1360.575754	-340.111653	970.71956	1229.239749	-278.787533	906.092388	1207.362757	-334.802929	867.777285	1468.102856	-875.2959059999999	857.0018219999999	1403.382049	-890.902214	764.991459	1419.313908	-857.99924	689.126829	1287.835652	-945.1533920000001	659.6687910000001	1280.603058	-867.520568	1052.070522	1256.539801	-348.065007	1103.627608	1310.118799	-511.755632	1151.76786	1267.922233	-473.024506	777.383494	1250.348496	-932.245102	921.677689	1199.485647	-828.697432	907.078216	1139.438364	-866.756702	420.343682	492.810989	-592.944671	
120	1.158333	962.495776	1063.886257	-744.004064	974.3500759999999	1047.264923	-493.584633	789.729831	1097.363846	-660.991432	795.944254	1095.150733	-577.082955	860.633461	884.69512	-449.336648	859.656023	763.874875	-465.147071	749.4227509999999	695.301088	-497.454944	962.740734	851.842611	-802.372922	1074.601216	769.486218	-786.694506	1065.711168	644.329709	-751.552265	585.076563	503.824903	-586.742247	518.053694	538.535666	-523.080542	1202.339346	451.685592	-682.108562	1198.593584	356.38904	-729.19354	1247.715216	256.613808	-658.6442510000001	299.931623	659.930534	-616.430762	196.178978	450.131306	-618.562353	186.367363	530.612794	-538.408056	1188.82007	89.471794	-629.363877	1408.575672	169.838924	-622.450389	1362.231505	96.157127	-697.095011	928.265128	1515.996156	-809.781332	1001.720678	1535.579352	-486.298275	1012.642754	1471.04424	-620.443879	890.234745	1556.268008	-626.728698	1003.214355	1446.420368	-400.008519	1014.326222	1359.677906	-389.43819	951.857425	1356.086006	-339.796129	957.843539	1224.701123	-278.038361	893.898312	1204.715638	-335.22794	872.187956	1458.869483	-877.1484	863.276961	1393.471747	-892.973133	770.257353	1407.353504	-863.510493	700.798502	1272.751754	-951.410306	668.408585	1264.905847	-874.144427	1041.898088	1246.142712	-345.639011	1102.378779	1291.645541	-508.79828	1146.05291	1247.084014	-468.354244	789.8010410000001	1237.013992	-936.798505	932.76706	1189.46652	-830.108203	919.868652	1129.311014	-868.098074	436.857456	500.929713	-591.516948	
121	1.166667	960.82364	1059.159219	-745.07042	974.921397	1041.656188	-494.38093	788.0615780000001	1090.8236	-659.602713	795.568764	1087.399168	-575.601117	864.887936	876.930195	-449.95193	868.716153	756.03251	-464.999108	760.559455	684.313491	-496.826944	959.619938	849.069424	-800.637704	1070.482181	768.912275	-784.020636	1060.598698	639.682371	-751.140479	602.1040400000001	500.979767	-584.6294339999999	537.896484	540.811871	-521.369025	1192.593345	441.668667	-682.378455	1183.948455	346.163369	-727.7098570000001	1230.520765	244.611798	-657.022262	328.487069	678.114707	-614.687593	211.76418	474.936913	-616.4979509999999	207.448195	555.739833	-535.984597	1163.032751	88.321077	-625.526609	1387.475874	147.161196	-620.882476	1334.048088	78.25368400000001	-695.388415	930.755865	1507.716823	-811.044079	1001.740985	1528.764923	-485.694624	1012.970237	1464.424304	-620.680657	890.3750649999999	1550.089659	-628.085643	998.804917	1439.537037	-398.453685	1006.38782	1351.791836	-388.595012	943.546665	1350.817603	-339.421945	944.453856	1219.678094	-277.682221	881.459492	1201.610967	-336.212269	877.120073	1448.477032	-879.275423	870.266828	1382.353156	-895.126098	776.2544	1394.286296	-869.353833	713.6098	1256.658023	-957.870624	677.739236	1248.244199	-881.0607199999999	1031.443247	1234.722314	-343.009479	1100.780601	1271.277029	-505.025036	1139.368459	1224.495191	-462.98595	803.134107	1222.758378	-941.383967	944.6170090000001	1178.531235	-831.548541	933.360742	1118.237881	-869.2509690000001	455.262836	507.260568	-589.654551	
122	1.175	958.372651	1053.426101	-746.166784	975.283108	1035.660333	-494.709188	785.603256	1083.167436	-658.051622	794.548619	1078.511968	-574.038064	869.400926	868.017821	-450.590707	877.574119	747.906558	-464.591946	771.935974	672.771066	-496.471392	956.477493	845.4715169999999	-799.455378	1066.662321	767.033157	-781.079845	1055.529565	634.8086499999999	-750.358411	620.797051	496.936675	-582.136026	559.445576	541.235517	-519.362242	1183.504421	432.121969	-681.58599	1169.198995	336.854258	-725.005842	1211.185783	233.676257	-653.387904	358.26268	692.9076690000001	-613.028205	231.822686	495.448069	-613.912959	232.159032	576.280764	-533.143061	1132.982552	89.928938	-621.6008859999999	1361.965157	123.162347	-617.212663	1300.787406	63.65803	-694.149729	933.649886	1498.685313	-812.416591	1001.555657	1521.535689	-484.714213	1013.599548	1457.274773	-620.882842	890.496666	1543.530307	-629.272685	994.092653	1431.623688	-396.868033	997.8907809999999	1343.20521	-387.6969	934.771718	1344.88205	-339.037759	930.633316	1214.243957	-277.801925	868.778813	1198.127612	-337.749576	882.535658	1436.892038	-881.722403	877.917478	1370.132818	-897.248196	782.860815	1380.071992	-875.392053	727.428457	1239.730581	-964.3774089999999	688.129495	1230.65758	-888.231802	1020.646131	1222.331657	-340.206658	1098.588277	1248.981585	-500.457299	1131.666746	1200.340152	-456.709391	817.239843	1207.659468	-946.059209	957.092443	1166.751247	-832.843287	947.4866490000001	1106.241587	-870.156712	475.338828	511.765107	-587.501562	
